<?xml version="1.0" standalone="no"?>
<!DOCTYPE svg PUBLIC "-//W3C//DTD SVG 20010904//EN"
 "http://www.w3.org/TR/2001/REC-SVG-20010904/DTD/svg10.dtd">
<svg version="1.0" xmlns="http://www.w3.org/2000/svg"
 width="667.000000pt" height="374.000000pt" viewBox="0 0 667.000000 374.000000"
 preserveAspectRatio="xMidYMid meet">

<g transform="translate(0.000000,374.000000) scale(0.100000,-0.100000)"
fill="#000000" stroke="none">
<path d="M2448 2073 c-50 -3 -58 -7 -58 -24 0 -18 6 -19 95 -17 80 3 95 6 95
19 0 19 -21 30 -53 27 -12 -1 -48 -3 -79 -5z"/>
<path d="M650 2003 c-35 -6 -102 -54 -118 -83 -19 -37 -11 -134 15 -168 42
-56 76 -67 218 -68 155 -2 180 -10 194 -59 13 -47 1 -79 -36 -93 -32 -13 -227
-20 -259 -9 -12 4 -30 23 -40 42 -17 32 -23 35 -61 35 -50 0 -54 -12 -28 -78
32 -80 103 -105 281 -100 141 4 166 13 212 83 31 45 34 56 30 107 -3 42 -11
65 -32 93 -52 68 -74 75 -226 75 -156 0 -180 8 -180 64 0 55 16 61 172 61
l140 0 20 -27 c16 -23 27 -28 64 -28 39 0 44 2 44 23 0 27 -35 77 -76 109 -26
21 -39 23 -169 24 -77 1 -151 0 -165 -3z"/>
<path d="M1140 1710 l0 -290 155 0 155 0 0 45 0 44 -102 3 -103 3 -3 53 -3 52
75 0 c41 0 77 4 80 8 2 4 -4 27 -14 49 -18 42 -19 42 -77 45 l-58 3 -3 87 -3
87 108 3 108 3 3 48 3 47 -160 0 -161 0 0 -290z"/>
<path d="M1510 1950 l0 -50 109 0 c94 0 112 -3 134 -20 34 -27 44 -78 23 -118
-19 -37 -33 -43 -127 -51 l-76 -6 48 -70 c26 -38 70 -102 96 -142 l48 -72 63
-1 62 0 -51 70 c-28 38 -55 72 -60 75 -5 4 -16 19 -24 35 l-15 29 52 28 c64
35 89 68 95 126 17 150 -70 217 -283 217 l-94 0 0 -50z"/>
<path d="M1940 1710 l0 -290 50 0 50 0 0 240 0 240 105 0 105 0 0 50 0 50
-155 0 -155 0 0 -290z"/>
<path d="M2445 1943 c-22 -32 -68 -98 -103 -148 -83 -119 -172 -246 -223 -318
l-40 -58 62 3 62 3 41 59 c23 32 79 115 126 184 47 69 91 127 98 130 9 3 12
-39 12 -187 l0 -191 50 0 50 0 0 290 0 290 -47 0 c-47 -1 -49 -2 -88 -57z"/>
<path d="M2794 1979 c-146 -45 -224 -178 -194 -326 17 -79 41 -123 94 -170 54
-47 101 -63 189 -63 183 0 312 137 293 312 -9 90 -26 114 -107 151 -64 30 -69
34 -69 63 0 27 -5 32 -39 42 -52 16 -94 14 -167 -9z m150 -80 c46 -11 97 -53
122 -100 20 -39 20 -134 1 -179 -42 -98 -174 -142 -272 -92 -71 36 -105 95
-105 182 0 67 19 109 66 149 59 48 111 60 188 40z"/>
<path d="M2526 1303 c-3 -3 -6 -30 -6 -60 l0 -54 -29 22 -29 22 -31 -22 c-54
-39 -53 -110 2 -141 25 -14 30 -13 57 2 17 9 30 13 30 8 0 -6 7 -10 15 -10 12
0 15 19 15 114 0 105 -6 136 -24 119z m-6 -135 c13 -25 13 -30 -2 -55 -9 -16
-26 -29 -38 -31 -49 -8 -80 66 -44 103 24 24 66 15 84 -17z"/>
<path d="M5270 1190 c0 -73 4 -120 10 -120 6 0 10 47 10 120 0 73 -4 120 -10
120 -6 0 -10 -47 -10 -120z"/>
<path d="M570 1185 c0 -119 17 -162 22 -57 l3 57 60 0 60 0 3 -57 c5 -105 22
-62 22 57 0 70 -4 115 -10 115 -5 0 -10 -20 -10 -45 l0 -45 -65 0 -65 0 0 45
c0 25 -4 45 -10 45 -6 0 -10 -45 -10 -115z"/>
<path d="M3794 1285 c-11 -7 -15 -17 -11 -21 4 -5 12 -2 17 6 7 11 13 12 35 2
28 -13 55 -3 55 20 0 6 -7 5 -15 -2 -12 -10 -22 -10 -39 -2 -18 8 -28 7 -42
-3z"/>
<path d="M2874 1279 c-8 -14 11 -33 25 -25 16 10 13 36 -3 36 -8 0 -18 -5 -22
-11z"/>
<path d="M5706 1281 c-3 -5 0 -13 7 -19 15 -13 42 1 33 17 -9 13 -33 15 -40 2z"/>
<path d="M4540 1240 c0 -11 -7 -20 -15 -20 -8 0 -15 -4 -15 -10 0 -5 7 -10 15
-10 12 0 15 -14 15 -65 0 -37 4 -65 10 -65 6 0 10 27 10 60 0 45 4 62 15 66 8
4 15 10 15 15 0 5 -7 9 -15 9 -8 0 -15 9 -15 20 0 11 -4 20 -10 20 -5 0 -10
-9 -10 -20z"/>
<path d="M985 1212 c-13 -13 -19 -14 -22 -4 -12 33 -23 4 -23 -63 0 -43 4 -75
10 -75 6 0 10 24 10 53 0 55 12 77 41 77 22 0 29 -20 29 -81 0 -27 5 -49 10
-49 6 0 10 22 10 48 0 55 18 86 46 80 16 -3 19 -13 22 -66 4 -81 22 -80 22 1
0 49 -4 68 -18 81 -18 15 -21 15 -45 -4 -15 -12 -28 -16 -32 -10 -15 24 -42
29 -60 12z"/>
<path d="M1319 1207 c-46 -31 -52 -85 -15 -122 29 -28 77 -33 96 -10 16 19 5
34 -12 17 -22 -22 -57 -14 -73 18 l-16 30 66 0 c57 0 65 2 65 18 0 20 -21 42
-56 60 -18 9 -28 7 -55 -11z m69 -19 c21 -21 13 -28 -33 -28 -25 0 -45 4 -45
8 0 15 24 32 45 32 12 0 26 -5 33 -12z"/>
<path d="M1481 1214 c-31 -22 -26 -49 15 -73 45 -27 43 -57 -4 -55 -37 2 -43
-13 -8 -22 66 -16 90 50 31 85 -45 26 -48 56 -5 48 34 -7 39 2 11 20 -15 9
-23 8 -40 -3z"/>
<path d="M1660 1222 c-8 -2 -23 -11 -32 -20 -16 -14 -18 -13 -18 1 0 10 -4 17
-10 17 -6 0 -10 -43 -10 -110 0 -67 4 -110 10 -110 6 0 10 21 10 46 0 45 0 45
22 30 47 -33 92 -10 104 52 10 49 -37 107 -76 94z m46 -48 c16 -23 16 -28 1
-60 -14 -28 -22 -34 -47 -34 -25 0 -33 6 -47 34 -15 32 -15 37 1 60 11 18 25
26 46 26 21 0 35 -8 46 -26z"/>
<path d="M1812 1209 c-36 -24 -46 -47 -37 -89 12 -54 70 -77 108 -42 15 12 21
14 24 5 12 -35 23 -5 23 62 0 43 -4 75 -10 75 -5 0 -10 -7 -10 -15 0 -17 -16
-20 -25 -5 -16 25 -41 28 -73 9z m80 -26 c35 -32 10 -103 -37 -103 -25 0 -55
33 -55 60 0 26 30 60 52 60 12 0 30 -7 40 -17z"/>
<path d="M2009 1215 c-15 -8 -31 -27 -36 -42 -11 -31 -1 -82 19 -98 15 -12 41
-56 36 -59 -2 -2 -12 -8 -23 -14 -19 -11 -19 -11 6 -12 25 0 49 16 49 32 0 5
-10 13 -22 17 -24 9 -24 9 25 25 29 9 19 21 -20 21 -31 0 -38 4 -49 31 -19 47
0 79 49 79 41 0 47 9 18 25 -24 12 -20 12 -52 -5z"/>
<path d="M2150 1212 c-65 -32 -63 -108 3 -140 22 -11 32 -11 54 0 61 29 65
106 7 140 -28 17 -32 17 -64 0z m78 -44 c24 -51 -28 -104 -73 -74 -33 21 -40
52 -20 82 23 35 74 30 93 -8z"/>
<path d="M2620 1203 c-29 -24 -32 -30 -27 -72 6 -50 26 -71 67 -71 30 0 69 25
57 36 -4 4 -13 2 -19 -4 -18 -18 -53 -15 -71 6 -31 34 -21 42 49 42 56 0 65 2
60 16 -3 9 -6 20 -6 25 0 9 -58 49 -72 49 -3 0 -21 -12 -38 -27z m78 -15 c22
-22 13 -28 -38 -28 -27 0 -50 4 -50 8 0 29 65 43 88 20z"/>
<path d="M2993 1208 c-20 -19 -23 -20 -29 -5 -14 37 -24 13 -24 -58 0 -43 4
-75 10 -75 6 0 10 17 10 38 0 46 20 86 45 90 27 6 45 -25 45 -80 0 -26 5 -48
10 -48 6 0 10 27 10 60 0 47 -4 64 -20 80 -25 25 -31 25 -57 -2z"/>
<path d="M3143 1214 c-17 -9 -37 -29 -43 -45 -24 -58 45 -123 101 -95 60 30
62 104 4 137 -27 16 -33 17 -62 3z m69 -31 c25 -23 22 -55 -7 -83 -25 -23 -27
-23 -53 -8 -34 21 -43 75 -16 95 24 18 54 16 76 -4z"/>
<path d="M3475 1218 c-32 -17 -45 -40 -45 -80 0 -69 60 -101 107 -56 20 18 23
19 23 5 0 -9 5 -17 10 -17 6 0 10 32 10 75 0 43 -4 75 -10 75 -11 0 -14 -19
-11 -68 5 -63 -60 -97 -93 -50 -35 50 -3 106 54 95 37 -8 38 -2 2 17 -20 10
-33 11 -47 4z"/>
<path d="M3662 1215 c-55 -24 -66 -91 -22 -135 11 -11 20 -23 20 -26 0 -4 8
-13 18 -20 15 -11 14 -14 -18 -28 l-35 -16 35 2 c28 2 36 8 38 26 2 12 -1 22
-7 22 -20 0 -11 19 11 22 12 2 23 9 26 15 2 9 -5 11 -26 7 -24 -5 -33 -1 -51
21 -26 35 -26 45 0 74 16 16 30 22 50 19 32 -5 38 6 11 21 -11 6 -28 5 -50 -4z"/>
<path d="M3791 1204 c-40 -33 -43 -89 -8 -122 28 -27 54 -28 80 -4 15 12 21
14 24 5 12 -35 23 -5 23 62 0 43 -4 75 -10 75 -11 0 -14 -19 -11 -68 5 -71
-66 -99 -96 -38 -15 33 -15 37 1 62 15 22 23 25 52 21 42 -7 43 -2 5 18 -28
14 -31 13 -60 -11z"/>
<path d="M3993 1210 c-58 -35 -53 -108 9 -138 35 -17 73 -2 93 39 21 39 8 77
-34 102 -35 21 -29 21 -68 -3z m83 -38 c15 -31 7 -60 -22 -79 -22 -14 -26 -14
-49 1 -34 22 -42 61 -19 87 25 27 74 22 90 -9z"/>
<path d="M4284 1214 c-37 -19 -44 -31 -44 -75 0 -46 17 -68 60 -75 36 -6 83
17 67 32 -4 4 -13 2 -19 -4 -19 -19 -56 -14 -72 10 -9 12 -16 26 -16 30 0 5
29 8 65 8 70 0 78 8 47 46 -29 37 -55 45 -88 28z m66 -29 c18 -22 9 -27 -46
-23 -46 3 -47 4 -30 21 22 21 59 22 76 2z"/>
<path d="M4657 1214 c-52 -28 -63 -89 -22 -129 27 -28 71 -33 101 -11 27 20
10 32 -22 16 -28 -16 -48 -8 -72 28 -14 22 -14 22 52 22 57 0 66 2 66 18 0 19
-34 55 -60 64 -9 3 -28 -1 -43 -8z m61 -26 c21 -21 13 -28 -33 -28 -25 0 -45
4 -45 8 0 15 24 32 45 32 12 0 26 -5 33 -12z"/>
<path d="M4833 1215 c-34 -14 -43 -31 -43 -80 0 -60 76 -101 110 -60 11 13 8
14 -19 9 -39 -8 -71 17 -71 57 0 38 26 62 62 57 36 -6 45 6 15 19 -17 8 -32 7
-54 -2z"/>
<path d="M4977 1209 c-22 -17 -27 -18 -27 -5 0 9 -4 16 -10 16 -6 0 -10 -32
-10 -75 0 -43 4 -75 10 -75 6 0 10 24 10 53 0 57 12 77 46 77 27 0 34 -17 34
-81 0 -27 5 -49 10 -49 7 0 10 25 8 66 -2 55 -7 69 -24 81 -18 12 -24 11 -47
-8z"/>
<path d="M5119 1207 c-25 -17 -35 -31 -37 -56 -9 -89 105 -121 139 -39 16 40
3 77 -37 100 -30 18 -32 18 -65 -5z m73 -24 c24 -22 23 -52 -4 -80 -27 -29
-36 -29 -65 -1 -27 25 -29 54 -6 80 20 22 51 23 75 1z"/>
<path d="M5374 1215 c-34 -14 -44 -31 -44 -75 0 -69 81 -99 127 -46 37 44 27
93 -25 120 -23 12 -33 12 -58 1z m68 -32 c25 -22 23 -46 -6 -80 -24 -27 -25
-28 -53 -11 -20 12 -29 26 -31 49 -6 53 50 79 90 42z"/>
<path d="M5541 1204 c-38 -31 -42 -78 -10 -118 23 -29 54 -33 87 -10 21 14 22
14 22 -8 0 -13 -5 -29 -12 -36 -15 -15 -61 -15 -76 0 -6 6 -15 8 -19 4 -12
-12 28 -36 59 -36 53 0 68 29 68 130 0 53 -4 90 -10 90 -5 0 -10 -7 -10 -15 0
-12 -7 -10 -34 6 l-34 20 -31 -27z m89 -24 c25 -25 25 -41 -1 -74 -26 -33 -62
-34 -83 -1 -20 30 -20 45 0 73 19 28 57 29 84 2z"/>
<path d="M5811 1204 c-38 -31 -42 -78 -10 -118 25 -31 61 -34 89 -6 16 16 20
17 20 5 0 -8 5 -15 10 -15 6 0 10 32 10 75 0 43 -4 75 -10 75 -5 0 -10 -7 -10
-15 0 -12 -7 -10 -34 6 l-34 20 -31 -27z m98 -38 c12 -25 11 -31 -6 -55 -27
-35 -62 -39 -85 -9 -22 29 -23 47 -2 76 23 34 74 27 93 -12z"/>
<path d="M780 1157 c0 -49 4 -68 18 -80 26 -24 68 -21 86 5 18 25 22 138 6
138 -5 0 -10 -23 -10 -51 0 -59 -13 -89 -40 -89 -27 0 -40 30 -40 89 0 28 -4
51 -10 51 -6 0 -10 -28 -10 -63z"/>
<path d="M2880 1145 c0 -60 3 -75 15 -75 12 0 15 15 15 75 0 60 -3 75 -15 75
-12 0 -15 -15 -15 -75z"/>
<path d="M3270 1212 c0 -5 3 -12 7 -15 3 -4 19 -34 33 -67 l27 -61 34 68 c19
37 36 71 37 76 2 4 -3 7 -11 7 -8 0 -22 -20 -31 -45 -10 -25 -21 -45 -25 -45
-4 0 -17 20 -29 45 -19 40 -42 60 -42 37z"/>
<path d="M5710 1145 c0 -60 3 -75 15 -75 12 0 15 15 15 75 0 60 -3 75 -15 75
-12 0 -15 -15 -15 -75z"/>
</g>
</svg>
