<?xml version="1.0" encoding="UTF-8"?>
<!DOCTYPE svg PUBLIC "-//W3C//DTD SVG 1.1//EN" "http://www.w3.org/Graphics/SVG/1.1/DTD/svg11.dtd">
<!-- Creator: CorelDRAW 2020 (64 Bit) -->
<svg xmlns="http://www.w3.org/2000/svg" xml:space="preserve" width="176.213mm" height="60.8545mm" version="1.1" style="shape-rendering:geometricPrecision; text-rendering:geometricPrecision; image-rendering:optimizeQuality; fill-rule:evenodd; clip-rule:evenodd"
viewBox="0 0 17567.01 6066.69"
 xmlns:xlink="http://www.w3.org/1999/xlink"
 xmlns:xodm="http://www.corel.com/coreldraw/odm/2003">
 <defs>
  <style type="text/css">
   <![CDATA[
    .fil5 {fill:none}
    .fil2 {fill:#FEFEFE}
    .fil4 {fill:#606062}
    .fil0 {fill:#606062}
    .fil1 {fill:#51A8B1}
    .fil3 {fill:#51A8B1}
    .fil6 {fill:#606062;fill-rule:nonzero}
   ]]>
  </style>
 </defs>
 <g id="Camada_x0020_1">
  <metadata id="CorelCorpID_0Corel-Layer"/>
  <path class="fil0" d="M7229.59 3624.62c-116.38,-805.97 1031.92,-934.5 1138.22,-197.27 49.73,344.82 -184.49,626.14 -463.36,674.03 -346.09,59.42 -633.27,-188.64 -674.86,-476.76zm408.55 -955.13c-1147.35,208.37 -834.02,1928.82 336.97,1707.2 1106.49,-209.44 826.63,-1918.53 -336.97,-1707.2z"/>
  <path class="fil1" d="M9906.62 656.63l0.02 0c155.84,0 283.31,142.05 283.31,315.59l0 1079.04 -566.66 78.95 0 -1157.99c0,-173.59 127.48,-315.59 283.32,-315.59z"/>
  <path class="fil1" d="M9144.27 492.16l0.01 0c173.57,0 315.58,142.04 315.58,315.59l0 3597.75 -631.21 0 0 -3597.75c0,-173.56 142.02,-315.59 315.61,-315.59z"/>
  <polygon class="fil1" points="9388.19,1768.42 9459.87,2367.06 10187.5,2051.6 9632.37,1709.19 "/>
  <path class="fil1" d="M8417 1523.66l-0.02 0c-155.85,0 -283.31,142.04 -283.31,315.58l0 1079.04 566.66 78.95 0 -1157.99c0,-173.59 -127.48,-315.58 -283.32,-315.58z"/>
  <polygon class="fil1" points="8935.43,2635.44 8863.75,3234.08 8136.12,2918.61 8691.24,2576.22 "/>
  <rect class="fil2" x="9302.17" y="3071.47" width="63.57" height="1189.64" rx="31.78" ry="31.78"/>
  <path class="fil2" d="M8954.57 2470.13l0 0c-17.49,0 -31.78,-14.3 -31.78,-31.78l0 -1020.39c0,-17.49 14.3,-31.78 31.78,-31.78l0 0c17.49,0 31.78,14.34 31.78,31.78l0 1020.39c0,17.46 -14.3,31.78 -31.78,31.78z"/>
  <rect class="fil2" x="9302.17" y="1640.6" width="63.57" height="1189.64" rx="31.78" ry="31.78"/>
  <path class="fil2" d="M8954.57 3319.8l0 0c-17.49,0 -31.78,-14.3 -31.78,-31.78l0 -326.29c0,-17.49 14.3,-31.78 31.78,-31.78l0 0c17.49,0 31.78,14.33 31.78,31.78l0 326.29c0,17.45 -14.3,31.78 -31.78,31.78z"/>
  <circle class="fil2" cx="9335.03" cy="2956.4" r="27.42"/>
  <circle class="fil2" cx="8953.49" cy="2004.01" r="27.42"/>
  <path class="fil2" d="M9333.96 699.28l0 0c17.49,0 31.78,14.32 31.78,31.78l0 603.9c0,17.48 -14.3,31.78 -31.78,31.78l0 0c-17.5,0 -31.78,-14.29 -31.78,-31.78l0 -603.9c0,-17.49 14.29,-31.78 31.78,-31.78z"/>
  <path class="fil2" d="M8954.57 4261.13l0 0c-17.49,0 -31.78,-14.32 -31.78,-31.78l0 -603.9c0,-17.48 14.3,-31.79 31.78,-31.79l0 0c17.49,0 31.78,14.3 31.78,31.79l0 603.9c0,17.49 -14.3,31.78 -31.78,31.78z"/>
  <circle class="fil2" cx="9335.03" cy="1492.9" r="27.42"/>
  <circle class="fil2" cx="8953.49" cy="3467.51" r="27.42"/>
  <path class="fil2" d="M9146.68 3852.46l0 0c17.49,0 31.78,14.31 31.78,31.78l0 345.09c0,17.47 -14.3,31.78 -31.78,31.78l0 0c-17.5,0 -31.78,-14.3 -31.78,-31.78l0 -345.09c0,-17.49 14.29,-31.78 31.78,-31.78z"/>
  <path class="fil2" d="M9146.68 2203.66l0 0c17.49,0 31.78,14.33 31.78,31.78l0 1280.45c0,17.46 -14.3,31.78 -31.78,31.78l0 0c-17.5,0 -31.78,-14.3 -31.78,-31.78l0 -1280.45c0,-17.49 14.29,-31.78 31.78,-31.78z"/>
  <circle class="fil2" cx="9147.75" cy="3699.89" r="27.42"/>
  <path class="fil2" d="M9146.68 699.28l0 0c17.49,0 31.78,14.34 31.78,31.78l0 1180.56c0,17.46 -14.3,31.78 -31.78,31.78l0 0c-17.5,0 -31.78,-14.3 -31.78,-31.78l0 -1180.56c0,-17.49 14.29,-31.78 31.78,-31.78z"/>
  <circle class="fil2" cx="9147.75" cy="2051.47" r="27.42"/>
  <circle class="fil2" cx="9141.94" cy="611.38" r="27.42"/>
  <circle class="fil2" cx="8953.49" cy="2608.02" r="27.42"/>
  <path class="fil2" d="M8954.57 1061.16l0 0c-17.49,0 -31.78,-14.3 -31.78,-31.78l0 -298.3c0,-17.49 14.3,-31.78 31.78,-31.78l0 0c17.49,0 31.78,14.33 31.78,31.78l0 298.3c0,17.46 -14.3,31.78 -31.78,31.78z"/>
  <circle class="fil2" cx="8950.23" cy="1191.58" r="27.42"/>
  <path class="fil2" d="M8270.98 1922.73l0 0c-17.49,0 -31.78,-14.29 -31.78,-31.78l0 -212.78c0,-17.49 14.3,-31.78 31.78,-31.78l0 0c17.49,0 31.78,14.35 31.78,31.78l0 212.78c0,17.44 -14.3,31.78 -31.78,31.78z"/>
  <path class="fil2" d="M8270.98 2864.06l0 0c-17.49,0 -31.78,-14.31 -31.78,-31.78l0 -603.9c0,-17.47 14.3,-31.78 31.78,-31.78l0 0c17.49,0 31.78,14.3 31.78,31.78l0 603.9c0,17.5 -14.3,31.78 -31.78,31.78z"/>
  <circle class="fil2" cx="8269.9" cy="2070.45" r="27.42"/>
  <path class="fil2" d="M8431.31 2566.64l0 0c17.49,0 31.78,14.32 31.78,31.78l0 345.1c0,17.47 -14.3,31.78 -31.78,31.78l0 0c-17.49,0 -31.78,-14.3 -31.78,-31.78l0 -345.1c0,-17.49 14.3,-31.78 31.78,-31.78z"/>
  <circle class="fil2" cx="8432.39" cy="2414.08" r="27.42"/>
  <path class="fil2" d="M8570.67 2353.24l0 0c17.5,0 31.79,14.35 31.79,31.78l0 558.5c0,17.44 -14.3,31.78 -31.79,31.78l0 0c-17.49,0 -31.78,-14.3 -31.78,-31.78l0 -558.5c0,-17.49 14.3,-31.78 31.78,-31.78z"/>
  <circle class="fil2" cx="8571.75" cy="2414.08" r="27.42"/>
  <path class="fil2" d="M8431.31 1599.49l0 0c17.49,0 31.78,14.33 31.78,31.78l0 622.08c0,17.46 -14.3,31.78 -31.78,31.78l0 0c-17.49,0 -31.78,-14.3 -31.78,-31.78l0 -622.08c0,-17.49 14.3,-31.78 31.78,-31.78z"/>
  <path class="fil2" d="M8561.6 2099.83l0 0c-17.49,0 -31.78,-14.3 -31.78,-31.78l0 -389.87c0,-17.49 14.3,-31.78 31.78,-31.78l0 0c17.49,0 31.78,14.37 31.78,31.78l0 389.87c0,17.42 -14.3,31.78 -31.78,31.78z"/>
  <circle class="fil2" cx="8560.51" cy="2194.32" r="27.42"/>
  <path class="fil2" d="M8752.33 2940.01l0 0c17.49,0 31.78,14.33 31.78,31.78l0 132.24c0,17.46 -14.3,31.78 -31.78,31.78l0 0c-17.49,0 -31.78,-14.3 -31.78,-31.78l0 -132.24c0,-17.49 14.3,-31.78 31.78,-31.78z"/>
  <circle class="fil2" cx="8753.4" cy="2846.46" r="27.42"/>
  <circle class="fil2" cx="8753.4" cy="2685.95" r="27.42"/>
  <path class="fil2" d="M9756.86 1091.67l0 0c-17.49,0 -31.78,-14.3 -31.78,-31.78l0 -212.78c0,-17.5 14.3,-31.79 31.78,-31.79l0 0c17.49,0 31.78,14.36 31.78,31.79l0 212.78c0,17.44 -14.3,31.78 -31.78,31.78z"/>
  <path class="fil2" d="M9756.86 2033l0 0c-17.49,0 -31.78,-14.32 -31.78,-31.78l0 -195.63c0,-17.47 14.3,-31.78 31.78,-31.78l0 0c17.49,0 31.78,14.32 31.78,31.78l0 195.63c0,17.47 -14.3,31.78 -31.78,31.78z"/>
  <circle class="fil2" cx="9755.78" cy="1184.53" r="27.42"/>
  <path class="fil2" d="M9917.17 1908.14l0 0c17.5,0 31.79,14.33 31.79,31.78l0 172.54c0,17.46 -14.3,31.78 -31.79,31.78l0 0c-17.49,0 -31.78,-14.3 -31.78,-31.78l0 -172.54c0,-17.5 14.3,-31.78 31.78,-31.78z"/>
  <circle class="fil2" cx="9918.26" cy="1804.39" r="27.42"/>
  <path class="fil2" d="M10056.54 1522.18l0 0c17.49,0 31.78,14.35 31.78,31.78l0 558.49c0,17.44 -14.3,31.78 -31.78,31.78l0 0c-17.49,0 -31.78,-14.3 -31.78,-31.78l0 -558.49c0,-17.5 14.3,-31.78 31.78,-31.78z"/>
  <circle class="fil2" cx="10057.63" cy="1583.01" r="27.42"/>
  <path class="fil2" d="M9917.17 1320.12l0 0c17.5,0 31.79,14.35 31.79,31.78l0 311.04c0,17.44 -14.3,31.78 -31.79,31.78l0 0c-17.49,0 -31.78,-14.3 -31.78,-31.78l0 -311.04c0,-17.49 14.3,-31.78 31.78,-31.78z"/>
  <path class="fil2" d="M10047.47 1268.76l0 0c-17.5,0 -31.79,-14.3 -31.79,-31.78l0 -389.86c0,-17.5 14.3,-31.79 31.79,-31.79l0 0c17.49,0 31.78,14.37 31.78,31.79l0 389.86c0,17.42 -14.3,31.78 -31.78,31.78z"/>
  <circle class="fil2" cx="10046.39" cy="1363.25" r="27.42"/>
  <path class="fil2" d="M9917.17 768.42l0 0c17.5,0 31.79,14.35 31.79,31.78l0 254.29c0,17.44 -14.3,31.78 -31.79,31.78l0 0c-17.49,0 -31.78,-14.3 -31.78,-31.78l0 -254.29c0,-17.49 14.3,-31.78 31.78,-31.78z"/>
  <circle class="fil2" cx="9918.26" cy="1168.71" r="27.42"/>
  <circle class="fil2" cx="9755.78" cy="2144.94" r="27.42"/>
  <path class="fil2" d="M9756.86 1541.02l0 0c-17.49,0 -31.78,-14.3 -31.78,-31.78l0 -212.78c0,-17.5 14.3,-31.79 31.78,-31.79l0 0c17.49,0 31.78,14.36 31.78,31.79l0 212.78c0,17.44 -14.3,31.78 -31.78,31.78z"/>
  <circle class="fil2" cx="9755.78" cy="1654.56" r="27.42"/>
  <path class="fil2" d="M9557.16 2088.36l0 0c-17.5,0 -31.79,-14.32 -31.79,-31.78l0 -195.63c0,-17.47 14.3,-31.78 31.79,-31.78l0 0c17.49,0 31.78,14.32 31.78,31.78l0 195.63c0,17.47 -14.3,31.78 -31.78,31.78z"/>
  <circle class="fil2" cx="9556.07" cy="2200.31" r="27.42"/>
  <path class="fil3" d="M14706.45 4393.85c158.83,-68.34 676.97,-1009.13 845.75,-1153.75l0.42 1153.75 333.34 0 0.39 -1743.6 -311.3 0 -915.51 1312.29c-99.75,142.11 -205.72,279.56 -296.04,431.31l342.95 0z"/>
  <path class="fil3" d="M9555.8 4393.85c536.85,0 1063.72,68.71 1310.53,-491.77 49.49,-112.35 81.42,-240.21 79.51,-380.13 -4.17,-305.52 -128.07,-515.7 -280.6,-667.24 -243.87,-242.29 -751.63,-204.46 -1109.44,-204.46l0 307.7c294.9,0 644.72,-30.57 864.96,116.74 101.25,67.68 205.9,232.7 215.73,422.6 33.61,648.94 -638.84,588.86 -1080.69,588.86l0 307.7z"/>
  <path class="fil0" d="M4494.01 4393.85l400.63 0c-132.64,-205.84 -366.94,-452.23 -461.53,-640.92 266.64,-92.84 512.79,-278.49 445.4,-658.97 -90.2,-509.36 -687.89,-455.96 -1166.66,-440.61l0 301.5c286.39,12.94 767.7,-82.09 832.36,194.18 89.86,384 -365.77,334.46 -649.67,334.46 20.46,117.67 513.32,727.89 599.48,910.36z"/>
  <polygon class="fil3" points="15962.88,4393.85 16732.19,4395.13 16828.38,4387.54 16828.46,4090.98 16732.1,4086.15 16296.21,4086.15 16296.21,2650.25 15962.88,2650.25 "/>
  <polygon class="fil0" points="5324.14,2957.95 5554.99,2959.21 5651.17,2951.66 5651.26,2655.08 5554.91,2650.25 4990.8,2650.25 4990.8,4393.85 5324.14,4393.85 "/>
  <polygon class="fil3" points="14155.19,2957.95 14386.03,2959.21 14482.21,2951.66 14482.32,2655.08 14385.94,2650.25 13821.85,2650.25 13821.85,4393.85 14155.19,4393.85 "/>
  <rect class="fil3" x="11037.63" y="2656.1" width="335.85" height="1731.9"/>
  <path class="fil0" d="M5733.67 4393.85c158.83,-68.34 676.97,-1009.13 845.76,-1153.75l0.41 1153.75 333.34 0 0.4 -1743.6 -311.31 0 -915.5 1312.29c-99.76,142.11 -205.73,279.56 -296.04,431.31l342.94 0z"/>
  <path class="fil0" d="M6327.56 2435.55c202.51,22.84 409.57,-68.53 593.81,0l0 155.04c-197.94,-73.08 -427.84,18.28 -593.81,0l0 -155.04z"/>
  <rect class="fil3" x="13376.11" y="2656.1" width="335.85" height="1731.9"/>
  <rect class="fil3" x="14184.24" y="2650.26" width="544.87" height="308.73"/>
  <rect class="fil4" x="5392.46" y="2650.26" width="544.87" height="308.73"/>
  <polygon class="fil0" points="2965.15,2957.95 3583.75,2957.95 3606.2,2650.25 2631.83,2650.25 2631.83,4393.85 3583.75,4393.85 3583.75,4086.15 2965.15,4086.15 2965.15,3792.11 3441.78,3782.6 3314.87,3460.44 2965.15,3453.35 "/>
  <path class="fil3" d="M13248.1 3449.62l-1092.94 0 12.82 328.84 517.63 0c-40.42,88.37 -148.05,298.49 -235.59,333.33 -266.9,-1.62 -434.26,-69.93 -544.51,-224.98 -123.13,-173.19 -163.73,-406.05 -66.86,-618.03 75.48,-165.19 228.78,-302.25 437.89,-329.41 259.83,-33.72 463.67,95.98 526.06,249.35l375.8 0c-316.19,-912.17 -1913.89,-580.7 -1684.39,518.22 84.88,406.47 486.18,737.68 977.68,679.33 51.93,-6.15 93.49,-8.14 154.59,-59.19l621.83 -877.46z"/>
  <path class="fil0" d="M1082.08 3831.12l-290.78 0c50.51,557.79 431.35,563.86 978.56,561.95 261.72,-0.92 439.38,-76.99 544.55,-223.2 116.29,-161.69 151.79,-402.33 44.96,-604.6 -273.99,-518.78 -1001.74,-129.82 -1200.11,-334.18 -75.96,-78.26 -54.47,-199.27 13.78,-253.05 76.09,-59.96 636.72,-46.27 755.31,-36.03 153.08,13.22 135.88,83.56 211.13,172.15l280.85 0c16.58,-212.4 -136.04,-393.4 -289.84,-456.99 -144.46,-59.74 -550.11,-35.33 -731.54,-35.57 -713.72,-0.91 -679.38,590.23 -479.61,822.88 311.04,362.2 1118.52,-67.45 1186.86,348.16 47.72,290.14 -230.68,283.56 -468.95,283.04 -111.43,-0.25 -278.17,18.31 -378.32,-19.08 -90.28,-33.71 -108.02,-91.11 -138.04,-151.48l-38.81 -74.01z"/>
  <rect class="fil5" x="-0" y="-0" width="17567.01" height="6066.69"/>
  <path class="fil6" d="M1575.13 4665.09l0 122.75c-85.68,-41.77 -164.74,-62.66 -236.78,-62.66 -92.27,0 -170.28,29.84 -233.58,89.29 -63.29,59.68 -94.84,132.78 -94.84,219.51 0,88.45 32.4,162.18 97.19,221.43 64.57,59.04 145.77,88.66 243.16,88.66 70.76,0 145.77,-22.16 224.84,-66.48l0 124.03c-72.04,38.36 -150.04,57.54 -234.22,57.54 -123.4,0 -228.67,-41.55 -316.05,-124.88 -87.59,-83.33 -131.28,-183.92 -131.28,-301.56 0,-115.51 43.06,-214.4 128.94,-296.66 86.09,-82.26 189.67,-123.39 310.93,-123.39 77.79,0 158.35,17.48 241.68,52.43zm41.94 508.71c0,-70.76 27.7,-133.41 83.33,-188.4 55.62,-54.98 119.55,-82.47 191.59,-82.47 74.16,0 138.95,27.07 194.36,81.2 55.41,54.13 83.11,117.21 83.11,189.67 0,72.68 -27.28,136.61 -81.62,192.02 -54.34,55.41 -117,83.11 -188.4,83.11 -76.08,0 -142.36,-27.28 -198.41,-82.05 -56.06,-54.77 -83.97,-119.13 -83.97,-193.08zm447.55 0.21c0,-44.11 -16.63,-82.27 -50.09,-114.86 -33.25,-32.61 -72.88,-48.81 -118.7,-48.81 -47.1,0 -87.59,16.41 -121.69,49.45 -33.89,33.03 -50.93,72.25 -50.93,118.06 0,43.68 17.27,81.84 51.57,114.66 34.31,32.61 74.81,49.02 121.06,49.02 44.96,0 84.39,-16.84 118.06,-50.29 33.89,-33.68 50.72,-72.68 50.72,-117.22zm187.72 -551.12l108.69 0 0 810.69 -108.69 0 0 -810.69zm732.65 572.86l-439.88 0c9.59,53.28 31.33,92.07 65.22,116.57 34.09,24.51 70.97,36.88 111.04,36.88 61.59,0 113.37,-25.58 154.93,-76.72l79.28 59.88c-59.47,76.93 -139.17,115.29 -239.12,115.29 -76.72,0 -140.66,-26.22 -192.44,-78.86 -51.57,-52.43 -77.36,-117.64 -77.36,-195.64 0,-73.1 26.22,-136.19 78.43,-189.89 52.21,-53.48 115.93,-80.34 191.38,-80.34 74.16,0 137.67,27.07 190.52,81.41 52.86,54.34 78.86,124.88 78.01,211.42zm-428.37 -86.95l315.83 0c-35.16,-70.76 -86.95,-106.13 -155.36,-106.13 -74.8,0 -128.29,35.37 -160.47,106.13zm540.64 -338.86l108.69 0 0 148.33 107.41 0 0 101.02 -107.41 0 0 414.3 -108.69 0 0 -414.3 -85.67 0 0 -101.02 85.67 0 0 -148.33zm243.99 -20.46c0,-22.59 8.31,-41.98 24.93,-58.39 16.84,-16.41 36.45,-24.72 59.46,-24.72 22.59,0 41.99,8.31 58.4,24.72 16.41,16.41 24.72,35.8 24.72,58.39 0,22.81 -8.31,42.41 -24.72,58.82 -16.41,16.2 -35.81,24.29 -58.4,24.29 -23.01,0 -42.62,-8.09 -59.46,-24.29 -16.62,-16.41 -24.93,-36.01 -24.93,-58.82zm30.69 168.79l108.69 0 0 515.32 -108.69 0 0 -515.32zm168.75 0l113.81 0 146.62 297.94 144.28 -297.94 114.45 0 -258.94 534.5 -260.22 -534.5zm511.23 255.53c0,-70.76 27.7,-133.41 83.33,-188.4 55.62,-54.98 119.55,-82.47 191.59,-82.47 74.16,0 138.95,27.07 194.36,81.2 55.41,54.13 83.11,117.21 83.11,189.67 0,72.68 -27.28,136.61 -81.62,192.02 -54.34,55.41 -117,83.11 -188.4,83.11 -76.08,0 -142.36,-27.28 -198.41,-82.05 -56.06,-54.77 -83.97,-119.13 -83.97,-193.08zm447.55 0.21c0,-44.11 -16.63,-82.27 -50.09,-114.86 -33.25,-32.61 -72.88,-48.81 -118.7,-48.81 -47.1,0 -87.59,16.41 -121.69,49.45 -33.89,33.03 -50.93,72.25 -50.93,118.06 0,43.68 17.27,81.84 51.57,114.66 34.31,32.61 74.81,49.02 121.06,49.02 44.96,0 84.39,-16.84 118.06,-50.29 33.89,-33.68 50.72,-72.68 50.72,-117.22zm959.84 -551.12l106.13 0 0 810.69 -106.13 0 0 -107.41c-51.36,80.98 -118.49,121.47 -201.61,121.47 -67.13,0 -124.67,-26.86 -172.63,-80.77 -47.95,-53.7 -72.04,-118.28 -72.04,-193.72 0,-73.95 24.51,-137.25 73.53,-190.53 48.8,-53.07 107.2,-79.7 174.97,-79.7 40.7,0 78.43,11.3 113.59,33.68 35.16,22.59 63.29,51.78 84.18,88.02l0 -401.73zm12.79 551.34c0,-46.25 -17.06,-86.53 -50.94,-120.42 -33.89,-34.09 -74.37,-51.14 -121.47,-51.14 -48.59,0 -89.72,16.62 -123.39,49.87 -33.89,33.25 -50.72,73.74 -50.72,121.69 0,46.03 17.26,86.3 51.57,120.62 34.31,34.52 74.38,51.79 120.2,51.79 48.59,0 89.93,-16.62 123.82,-50.09 33.89,-33.46 50.94,-74.16 50.94,-122.32zm725.84 21.52l-439.88 0c9.59,53.28 31.33,92.07 65.22,116.57 34.09,24.51 70.97,36.88 111.04,36.88 61.59,0 113.37,-25.58 154.93,-76.72l79.28 59.88c-59.47,76.93 -139.17,115.29 -239.12,115.29 -76.72,0 -140.66,-26.22 -192.44,-78.86 -51.57,-52.43 -77.36,-117.64 -77.36,-195.64 0,-73.1 26.22,-136.19 78.43,-189.89 52.21,-53.48 115.93,-80.34 191.38,-80.34 74.16,0 137.67,27.07 190.52,81.41 52.86,54.34 78.86,124.88 78.01,211.42zm-428.37 -86.95l315.83 0c-35.16,-70.76 -86.95,-106.13 -155.36,-106.13 -74.8,0 -128.29,35.37 -160.47,106.13zm6294.03 -470.56l488.46 0 0 108.69 -190.52 0 0 686.66 -108.69 0 0 -686.66 -189.24 0 0 -108.69zm-5427.53 0l108.68 0 0 795.35 -108.68 0 0 -795.35zm204.55 795.35l0 -515.32 108.68 0 0 85.47c30.9,-34.53 59.04,-59.88 84.19,-76.3 25.14,-16.41 53.28,-24.5 84.18,-24.5 46.25,0 85.88,15.34 118.7,46.25 32.82,30.9 49.23,67.98 49.23,111.46l0 372.96 -108.68 0 0 -341.41c0,-28.13 -8.95,-51.14 -27.07,-69.68 -17.9,-18.33 -40.7,-27.49 -68.42,-27.49 -36.01,0 -66.91,15.34 -93.13,46.04 -26,30.69 -39,67.77 -39,111.25l0 281.31 -108.68 0zm503.55 -259.79c0,-70.76 27.7,-133.41 83.33,-188.4 55.62,-54.98 119.55,-82.47 191.59,-82.47 74.16,0 138.95,27.07 194.36,81.2 55.41,54.13 83.11,117.21 83.11,189.67 0,72.68 -27.28,136.61 -81.62,192.02 -54.34,55.41 -117,83.11 -188.4,83.11 -76.08,0 -142.36,-27.28 -198.41,-82.05 -56.06,-54.77 -83.97,-119.13 -83.97,-193.08zm447.55 0.21c0,-44.11 -16.63,-82.27 -50.09,-114.86 -33.25,-32.61 -72.88,-48.81 -118.7,-48.81 -47.1,0 -87.59,16.41 -121.69,49.45 -33.89,33.03 -50.93,72.25 -50.93,118.06 0,43.68 17.27,81.84 51.57,114.66 34.31,32.61 74.81,49.02 121.06,49.02 44.96,0 84.39,-16.84 118.06,-50.29 33.89,-33.68 50.72,-72.68 50.72,-117.22zm119.95 -255.74l113.81 0 146.62 297.94 144.28 -297.94 114.45 0 -258.94 534.5 -260.22 -534.5zm974.12 0l108.68 0 0 515.32 -108.68 0 0 -102.29c-53.07,77.57 -118.7,116.36 -197.13,116.36 -67.99,0 -126.17,-26.64 -174.33,-80.13 -48.16,-53.28 -72.25,-118.06 -72.25,-194.36 0,-72.25 24.29,-135.33 72.88,-189.25 48.59,-53.91 105.7,-80.98 171.13,-80.98 40.49,0 78.86,11.09 115.29,33.46 36.24,22.17 64.36,51.15 84.4,86.74l0 -104.86zm15.34 258.51c0,-47.09 -17.05,-87.59 -50.93,-121.05 -33.89,-33.68 -74.59,-50.51 -121.9,-50.51 -46.25,0 -86.52,16.63 -120.84,50.09 -34.31,33.46 -51.57,72.68 -51.57,117.86 0,48.8 16.83,90.36 50.29,124.67 33.46,34.3 74.16,51.36 122.11,51.36 47.31,0 88.02,-17.06 121.9,-51.15 33.89,-33.89 50.93,-74.38 50.93,-121.27zm303.87 352.71l30.69 -102.51c-50.93,-22.37 -91.43,-56.26 -121.9,-101.66 -30.48,-45.18 -45.61,-93.13 -45.61,-144.06 0,-80.13 26.65,-146.41 79.92,-199.26 53.28,-52.64 120.2,-79.07 200.54,-79.07 47.74,0 97.18,12.36 147.9,37.09l0 121.47c-54.56,-34.1 -106.13,-51.15 -154.93,-51.15 -44.97,0 -84.18,15.77 -118.06,47.52 -33.68,31.54 -50.51,68.63 -50.51,111.26 0,47.73 15.77,88.01 47.52,120.84 31.54,32.6 70.33,49.01 116.15,49.01 46.68,0 99.95,-20.89 159.84,-62.66l0 124.04c-55.41,31.54 -109.11,47.31 -161.11,47.31 -10.45,0 -18.11,-0.64 -23.02,-1.91l-11.5 40.28c33.67,4.05 59.88,14.5 78.43,31.11 18.53,16.84 27.7,36.87 27.7,60.74 0,35.8 -16.84,64.57 -50.3,86.3 -33.46,21.95 -78.64,32.83 -135.11,32.83 -24.72,0 -52.64,-2.56 -84.39,-7.47l6.18 -73.09 14.49 0 34.31 2.55c74.16,0 111.25,-15.77 111.25,-47.52 0,-27.91 -29.2,-41.98 -87.8,-41.98l-10.66 0zm783.38 -611.22l108.68 0 0 515.32 -108.68 0 0 -102.29c-53.07,77.57 -118.7,116.36 -197.13,116.36 -67.99,0 -126.17,-26.64 -174.33,-80.13 -48.16,-53.28 -72.25,-118.06 -72.25,-194.36 0,-72.25 24.29,-135.33 72.88,-189.25 48.59,-53.91 105.7,-80.98 171.13,-80.98 40.49,0 78.86,11.09 115.29,33.46 36.24,22.17 64.36,51.15 84.4,86.74l0 -104.86zm15.34 258.51c0,-47.09 -17.05,-87.59 -50.93,-121.05 -33.89,-33.68 -74.59,-50.51 -121.9,-50.51 -46.25,0 -86.52,16.63 -120.84,50.09 -34.31,33.46 -51.57,72.68 -51.57,117.86 0,48.8 16.83,90.36 50.29,124.67 33.46,34.3 74.16,51.36 122.11,51.36 47.31,0 88.02,-17.06 121.9,-51.15 33.89,-33.89 50.93,-74.38 50.93,-121.27zm-295.38 -368.48l-83.11 0 0 -8.09c0,-39 12.14,-71.18 36.23,-96.75 24.09,-25.58 54.55,-38.36 91.64,-38.36 19.18,0 47.95,8.73 86.1,26.21 38.36,17.48 64.14,26.22 77.36,26.22 14.7,0 25.14,-4.27 31.54,-12.58 6.39,-8.3 10.87,-21.52 13.42,-39.85l81.84 0c-1.7,45.82 -13.21,80.98 -34.52,105.27 -21.52,24.51 -50.5,36.66 -87.16,36.66 -27.92,0 -58.82,-9.8 -92.92,-29.41 -33.67,-18.75 -57.96,-28.13 -73.09,-28.13 -14.07,0 -25.58,4.9 -34.31,14.92 -8.74,9.8 -13,22.59 -13,38.36l0 5.53zm475.21 365.5c0,-70.76 27.7,-133.41 83.33,-188.4 55.62,-54.98 119.55,-82.47 191.59,-82.47 74.16,0 138.95,27.07 194.36,81.2 55.41,54.13 83.11,117.21 83.11,189.67 0,72.68 -27.28,136.61 -81.62,192.02 -54.34,55.41 -117,83.11 -188.4,83.11 -76.08,0 -142.36,-27.28 -198.41,-82.05 -56.06,-54.77 -83.97,-119.13 -83.97,-193.08zm447.55 0.21c0,-44.11 -16.63,-82.27 -50.09,-114.86 -33.25,-32.61 -72.88,-48.81 -118.7,-48.81 -47.1,0 -87.59,16.41 -121.69,49.45 -33.89,33.03 -50.93,72.25 -50.93,118.06 0,43.68 17.27,81.84 51.57,114.66 34.31,32.61 74.81,49.02 121.06,49.02 44.96,0 84.39,-16.84 118.06,-50.29 33.89,-33.68 50.72,-72.68 50.72,-117.22zm1040.4 21.74l-439.88 0c9.59,53.28 31.33,92.07 65.22,116.57 34.09,24.51 70.97,36.88 111.04,36.88 61.59,0 113.37,-25.58 154.93,-76.72l79.28 59.88c-59.47,76.93 -139.17,115.29 -239.12,115.29 -76.72,0 -140.66,-26.22 -192.44,-78.86 -51.57,-52.43 -77.36,-117.64 -77.36,-195.64 0,-73.1 26.22,-136.19 78.43,-189.89 52.21,-53.48 115.93,-80.34 191.38,-80.34 74.16,0 137.67,27.07 190.52,81.41 52.86,54.34 78.86,124.88 78.01,211.42zm-428.37 -86.95l315.83 0c-35.16,-70.76 -86.95,-106.13 -155.36,-106.13 -74.8,0 -128.29,35.37 -160.47,106.13zm1885.37 86.95l-439.88 0c9.59,53.28 31.33,92.07 65.22,116.57 34.09,24.51 70.97,36.88 111.04,36.88 61.59,0 113.37,-25.58 154.93,-76.72l79.28 59.88c-59.47,76.93 -139.17,115.29 -239.12,115.29 -76.72,0 -140.66,-26.22 -192.44,-78.86 -51.57,-52.43 -77.36,-117.64 -77.36,-195.64 0,-73.1 26.22,-136.19 78.43,-189.89 52.21,-53.48 115.93,-80.34 191.38,-80.34 74.16,0 137.67,27.07 190.52,81.41 52.86,54.34 78.86,124.88 78.01,211.42zm-428.37 -86.95l315.83 0c-35.16,-70.76 -86.95,-106.13 -155.36,-106.13 -74.8,0 -128.29,35.37 -160.47,106.13zm892.28 167.5l0 124.04c-55.41,31.54 -109.11,47.31 -161.11,47.31 -71.18,0 -133.42,-26.86 -186.9,-80.34 -53.49,-53.71 -80.35,-115.72 -80.35,-186.05 0,-80.13 26.65,-146.41 79.92,-199.26 53.28,-52.64 120.2,-79.07 200.54,-79.07 47.74,0 97.18,12.36 147.9,37.09l0 121.47c-54.56,-34.1 -106.13,-51.15 -154.93,-51.15 -44.97,0 -84.18,15.77 -118.06,47.52 -33.68,31.54 -50.51,68.63 -50.51,111.26 0,47.73 15.77,88.01 47.52,120.84 31.54,32.6 70.33,49.01 116.15,49.01 46.68,0 99.95,-20.89 159.84,-62.66zm37.9 157.28l0 -515.32 108.68 0 0 85.47c30.9,-34.53 59.04,-59.88 84.19,-76.3 25.14,-16.41 53.28,-24.5 84.18,-24.5 46.25,0 85.88,15.34 118.7,46.25 32.82,30.9 49.23,67.98 49.23,111.46l0 372.96 -108.68 0 0 -341.41c0,-28.13 -8.95,-51.14 -27.07,-69.68 -17.9,-18.33 -40.7,-27.49 -68.42,-27.49 -36.01,0 -66.91,15.34 -93.13,46.04 -26,30.69 -39,67.77 -39,111.25l0 281.31 -108.68 0zm503.55 -259.79c0,-70.76 27.7,-133.41 83.33,-188.4 55.62,-54.98 119.55,-82.47 191.59,-82.47 74.16,0 138.95,27.07 194.36,81.2 55.41,54.13 83.11,117.21 83.11,189.67 0,72.68 -27.28,136.61 -81.62,192.02 -54.34,55.41 -117,83.11 -188.4,83.11 -76.08,0 -142.36,-27.28 -198.41,-82.05 -56.06,-54.77 -83.97,-119.13 -83.97,-193.08zm447.55 0.21c0,-44.11 -16.63,-82.27 -50.09,-114.86 -33.25,-32.61 -72.88,-48.81 -118.7,-48.81 -47.1,0 -87.59,16.41 -121.69,49.45 -33.89,33.03 -50.93,72.25 -50.93,118.06 0,43.68 17.27,81.84 51.57,114.66 34.31,32.61 74.81,49.02 121.06,49.02 44.96,0 84.39,-16.84 118.06,-50.29 33.89,-33.68 50.72,-72.68 50.72,-117.22zm187.72 -551.12l108.69 0 0 810.69 -108.69 0 0 -810.69zm189.2 550.91c0,-70.76 27.7,-133.41 83.33,-188.4 55.62,-54.98 119.55,-82.47 191.59,-82.47 74.16,0 138.95,27.07 194.36,81.2 55.41,54.13 83.11,117.21 83.11,189.67 0,72.68 -27.28,136.61 -81.62,192.02 -54.34,55.41 -117,83.11 -188.4,83.11 -76.08,0 -142.36,-27.28 -198.41,-82.05 -56.06,-54.77 -83.97,-119.13 -83.97,-193.08zm447.55 0.21c0,-44.11 -16.63,-82.27 -50.09,-114.86 -33.25,-32.61 -72.88,-48.81 -118.7,-48.81 -47.1,0 -87.59,16.41 -121.69,49.45 -33.89,33.03 -50.93,72.25 -50.93,118.06 0,43.68 17.27,81.84 51.57,114.66 34.31,32.61 74.81,49.02 121.06,49.02 44.96,0 84.39,-16.84 118.06,-50.29 33.89,-33.68 50.72,-72.68 50.72,-117.22zm602.02 -255.74l106.13 0 0 494.64c0,72.88 -25.15,134.9 -75.23,185.85 -50.09,50.93 -110.83,76.5 -182.01,76.5 -54.13,0 -103.79,-14.7 -149.18,-43.9 -45.39,-29.41 -78.64,-73.95 -99.95,-133.84l112.52 0c33.68,55.41 80.56,83.11 140.45,83.11 40.7,0 75.45,-14.7 104.22,-44.11 28.77,-29.19 43.05,-64.57 43.05,-105.7l0 -97.39c-52.43,76.07 -118.49,114.23 -198.42,114.23 -65.85,0 -123.18,-27.28 -171.98,-81.63 -48.81,-54.34 -73.31,-118.7 -73.31,-192.86 0,-74.38 23.87,-137.89 71.39,-190.74 47.74,-53.07 104.43,-79.49 170.07,-79.49 85.03,0 152.38,41.34 202.24,124.04l0 -108.69zm15.34 256.17c0,-48.59 -16.84,-89.08 -50.29,-121.69 -33.46,-32.6 -75.02,-48.8 -124.46,-48.8 -45.4,0 -85.47,16.84 -119.99,50.72 -34.52,33.89 -51.79,72.88 -51.79,117.21 0,47.95 17.05,89.3 51.15,124.04 34.09,34.74 74.8,52 121.9,52 47.73,0 88.66,-16.84 122.54,-50.72 33.89,-33.89 50.93,-74.8 50.93,-122.75zm193.9 -424.96c0,-22.59 8.31,-41.98 24.93,-58.39 16.84,-16.41 36.45,-24.72 59.46,-24.72 22.59,0 41.99,8.31 58.4,24.72 16.41,16.41 24.72,35.8 24.72,58.39 0,22.81 -8.31,42.41 -24.72,58.82 -16.41,16.2 -35.81,24.29 -58.4,24.29 -23.01,0 -42.62,-8.09 -59.46,-24.29 -16.62,-16.41 -24.93,-36.01 -24.93,-58.82zm30.69 168.79l108.69 0 0 515.32 -108.69 0 0 -515.32zm655.93 0l108.68 0 0 515.32 -108.68 0 0 -102.29c-53.07,77.57 -118.7,116.36 -197.13,116.36 -67.99,0 -126.17,-26.64 -174.33,-80.13 -48.16,-53.28 -72.25,-118.06 -72.25,-194.36 0,-72.25 24.29,-135.33 72.88,-189.25 48.59,-53.91 105.7,-80.98 171.13,-80.98 40.49,0 78.86,11.09 115.29,33.46 36.24,22.17 64.36,51.15 84.4,86.74l0 -104.86zm15.34 258.51c0,-47.09 -17.05,-87.59 -50.93,-121.05 -33.89,-33.68 -74.59,-50.51 -121.9,-50.51 -46.25,0 -86.52,16.63 -120.84,50.09 -34.31,33.46 -51.57,72.68 -51.57,117.86 0,48.8 16.83,90.36 50.29,124.67 33.46,34.3 74.16,51.36 122.11,51.36 47.31,0 88.02,-17.06 121.9,-51.15 33.89,-33.89 50.93,-74.38 50.93,-121.27z"/>
 </g>
</svg>
